<svg width="45" height="45" viewBox="0 0 45 45" fill="none" xmlns="http://www.w3.org/2000/svg">
<path d="M13.125 28.125H18.75C18.9 26.85 19.1812 25.575 19.6875 24.375H13.125V28.125ZM22.3125 20.4375C24.6045 18.158 27.7049 16.8773 30.9375 16.875H13.125V20.625H22.1625C22.2187 20.5687 22.2562 20.5125 22.3125 20.4375ZM22.3125 37.6875C22.9875 38.3437 23.7188 38.8875 24.4875 39.375H9.375C8.38044 39.375 7.42661 38.9799 6.72335 38.2766C6.02009 37.5734 5.625 36.6195 5.625 35.625V9.37498C5.625 7.31248 7.3125 5.62498 9.375 5.62498H17.2125C17.8125 4.04998 19.0125 2.81248 20.625 2.24998C23.4937 1.19998 26.7187 2.69998 27.7875 5.62498H35.625C36.6196 5.62498 37.5734 6.02007 38.2766 6.72333C38.9799 7.42659 39.375 8.38042 39.375 9.37498V20.2875C38.2909 19.2351 37.0188 18.3956 35.625 17.8125V9.37498H31.875V13.125H13.125V9.37498H9.375V35.625H20.6812C21.1312 36.3562 21.6937 37.05 22.3125 37.6875ZM20.625 7.49998C20.625 8.53123 21.4687 9.37498 22.5 9.37498C23.5312 9.37498 24.375 8.53123 24.375 7.49998C24.375 6.46873 23.5312 5.62498 22.5 5.62498C21.4687 5.62498 20.625 6.46873 20.625 7.49998ZM43.8562 39.375L41.25 41.9812L35.4 36.225C34.1062 37.0312 32.5687 37.5 30.9375 37.5C26.25 37.5 22.5 33.75 22.5 29.0625C22.5 24.375 26.25 20.625 30.9375 20.625C35.625 20.625 39.375 24.375 39.375 29.0625C39.375 30.7125 38.9062 32.2687 38.0812 33.5625L43.8562 39.375ZM35.625 29.0625C35.625 27.8193 35.1311 26.627 34.2521 25.7479C33.373 24.8688 32.1807 24.375 30.9375 24.375C29.6943 24.375 28.502 24.8688 27.6229 25.7479C26.7439 26.627 26.25 27.8193 26.25 29.0625C26.25 30.3057 26.7439 31.498 27.6229 32.377C28.502 33.2561 29.6943 33.75 30.9375 33.75C32.1807 33.75 33.373 33.2561 34.2521 32.377C35.1311 31.498 35.625 30.3057 35.625 29.0625Z" fill="url(#paint0_linear_9_1419)"/>
<defs>
<linearGradient id="paint0_linear_9_1419" x1="24.7406" y1="1.91516" x2="24.7406" y2="41.9812" gradientUnits="userSpaceOnUse">
<stop offset="0.416667" stop-color="#00FF95"/>
<stop offset="1" stop-color="#5EFF88" stop-opacity="0.24"/>
</linearGradient>
</defs>
</svg>
