<svg width="44" height="44" viewBox="0 0 44 44" fill="none" xmlns="http://www.w3.org/2000/svg">
<path d="M22 12.375C22 14.1984 21.2757 15.947 19.9864 17.2364C18.697 18.5257 16.9484 19.25 15.125 19.25C13.3016 19.25 11.553 18.5257 10.2636 17.2364C8.97433 15.947 8.25 14.1984 8.25 12.375C8.25 10.5516 8.97433 8.80295 10.2636 7.51364C11.553 6.22433 13.3016 5.5 15.125 5.5C16.9484 5.5 18.697 6.22433 19.9864 7.51364C21.2757 8.80295 22 10.5516 22 12.375ZM31.625 16.5C30.1555 16.4989 28.6936 16.712 27.2855 17.1325C26.6523 16.32 26.26 15.3461 26.1532 14.3215C26.0465 13.297 26.2296 12.2631 26.6817 11.3376C27.1338 10.412 27.8368 9.63202 28.7105 9.08643C29.5842 8.54084 30.5936 8.25157 31.6236 8.25157C32.6537 8.25157 33.6631 8.54084 34.5368 9.08643C35.4105 9.63202 36.1134 10.412 36.5655 11.3376C37.0177 12.2631 37.2008 13.297 37.094 14.3215C36.9873 15.3461 36.5949 16.32 35.9618 17.1325C34.5545 16.7122 33.0936 16.4992 31.625 16.5ZM8.25 22H19.9567C17.7174 24.7071 16.4947 28.1117 16.5 31.625C16.5 32.5435 16.5825 33.44 16.7393 34.3118C16.2022 34.3545 15.6637 34.3756 15.125 34.375C4.125 34.375 4.125 26.3312 4.125 26.3312V26.125C4.125 25.031 4.5596 23.9818 5.33318 23.2082C6.10677 22.4346 7.15598 22 8.25 22ZM44 31.625C44 34.9071 42.6962 38.0547 40.3754 40.3754C38.0547 42.6962 34.9071 44 31.625 44C28.3429 44 25.1953 42.6962 22.8746 40.3754C20.5538 38.0547 19.25 34.9071 19.25 31.625C19.25 28.3429 20.5538 25.1953 22.8746 22.8746C25.1953 20.5538 28.3429 19.25 31.625 19.25C34.9071 19.25 38.0547 20.5538 40.3754 22.8746C42.6962 25.1953 44 28.3429 44 31.625ZM32.934 24.365C32.8546 24.0789 32.6836 23.8266 32.4472 23.6469C32.2107 23.4672 31.922 23.3699 31.625 23.3699C31.328 23.3699 31.0393 23.4672 30.8028 23.6469C30.5664 23.8266 30.3954 24.0789 30.316 24.365L29.0042 28.578H24.75C23.419 28.578 22.8635 30.3573 23.9415 31.174L27.379 33.7782L26.0672 37.9912C25.6548 39.3112 27.1067 40.4113 28.1847 39.5945L31.6222 36.9902L35.0597 39.5945C36.1377 40.4113 37.5897 39.3112 37.1772 37.9912L35.8655 33.7782L39.303 31.174C40.381 30.3573 39.8255 28.578 38.4945 28.578H34.243L32.9313 24.3678L32.934 24.365Z" fill="url(#paint0_linear_9_1423)"/>
<defs>
<linearGradient id="paint0_linear_9_1423" x1="24.0625" y1="5.5" x2="24.0625" y2="44" gradientUnits="userSpaceOnUse">
<stop offset="0.484375" stop-color="#00FF95"/>
<stop offset="0.958333" stop-color="#5EFF88" stop-opacity="0.3"/>
</linearGradient>
</defs>
</svg>
