<svg width="21" height="21" viewBox="0 0 21 21" fill="none" xmlns="http://www.w3.org/2000/svg">
<g clip-path="url(#clip0_9_1631)">
<path d="M5 5H17V18H5V5Z" fill="white"/>
<path d="M14.9555 0H6.04455C2.71177 0 0 2.70092 0 6.02112V14.9789C0 18.2987 2.71142 21 6.04455 21H14.9555C18.2886 21 21 18.2987 21 14.9789V6.02112C21 2.70125 18.2886 0 14.9555 0ZM14 13.5C14 15.7212 12.7299 14.5 10.5 14.5H8C6.5 13.5 6.5 13.2212 6.5 11L6.04455 9C6.04455 6.77878 7.27012 6 9.5 6L14 7.5C16.2299 7.5 14.9555 9.27878 14.9555 11.5L14 13.5Z" fill="white"/>
<path d="M10.5168 5.05859C7.49448 5.05859 5.03516 7.48202 5.03516 10.4611C5.03516 13.4398 7.49413 15.8633 10.5168 15.8633C13.539 15.8633 15.9984 13.4398 15.9984 10.4611C15.9984 7.48202 13.539 5.05859 10.5168 5.05859ZM10.5168 13.8744C8.59498 13.8744 7.03181 12.3429 7.03181 10.4611C7.03181 8.57894 8.59498 7.04784 10.5168 7.04784C12.4382 7.04784 14.0017 8.57894 14.0017 10.4611C14.0017 12.3432 12.4385 13.8744 10.5168 13.8744Z" fill="#11121B"/>
<path d="M16.0944 6.12421C16.8068 6.12421 17.3842 5.54899 17.3842 4.83944C17.3842 4.12989 16.8068 3.55469 16.0944 3.55469C15.3821 3.55469 14.8047 4.12989 14.8047 4.83944C14.8047 5.54899 15.3821 6.12421 16.0944 6.12421Z" fill="#11121B"/>
</g>
<defs>
<clipPath id="clip0_9_1631">
<rect width="21" height="21" fill="white"/>
</clipPath>
</defs>
</svg>
