<svg width="107" height="20" viewBox="0 0 107 20" fill="none" xmlns="http://www.w3.org/2000/svg">
<path d="M3.66667 11.3736H29.3333V7.58237H3.66667V11.3736ZM0 18.9559H25.6667V15.1647H0V18.9559ZM7.33333 0V3.79118H33V0H7.33333Z" fill="#DCDCDC"/>
<path d="M53.3398 11.4087C53.5352 11.4087 53.7188 11.4946 53.8906 11.6665C54.0703 11.8384 54.1602 12.0181 54.1602 12.2056C54.1602 12.4009 54.1328 12.5532 54.0781 12.6626C53.7031 13.5063 53.168 14.2876 52.4727 15.0063C51.7852 15.7251 50.9648 16.3032 50.0117 16.7407C49.0586 17.1782 47.9922 17.397 46.8125 17.397C45.6484 17.397 44.5938 17.1821 43.6484 16.7524C42.7109 16.3228 41.9062 15.729 41.2344 14.9712C40.5703 14.2056 40.0586 13.3228 39.6992 12.3228C39.3477 11.3149 39.1719 10.2329 39.1719 9.07666C39.1719 7.93604 39.3516 6.87354 39.7109 5.88916C40.0703 4.89697 40.5859 4.02979 41.2578 3.2876C41.9297 2.5376 42.7305 1.95166 43.6602 1.52979C44.5977 1.10791 45.6367 0.896973 46.7773 0.896973C47.9336 0.896973 48.9844 1.1001 49.9297 1.50635C50.8828 1.9126 51.707 2.45557 52.4023 3.13525C53.1055 3.81494 53.6523 4.56885 54.043 5.39697C54.1055 5.52197 54.1367 5.65479 54.1367 5.79541C54.1367 6.02197 54.0547 6.2251 53.8906 6.40479C53.7344 6.57666 53.5703 6.6626 53.3984 6.6626C52.9297 6.6626 52.6172 6.49072 52.4609 6.14697C52 5.17041 51.2773 4.34619 50.293 3.67432C49.3086 2.99463 48.1367 2.65479 46.7773 2.65479C45.5742 2.65479 44.5352 2.94385 43.6602 3.52197C42.7852 4.1001 42.1094 4.87744 41.6328 5.854C41.1641 6.82275 40.9297 7.90869 40.9297 9.11182C40.9297 10.3149 41.1641 11.4126 41.6328 12.4048C42.1016 13.3892 42.7734 14.1743 43.6484 14.7603C44.5312 15.3384 45.5781 15.6274 46.7891 15.6274C47.6953 15.6274 48.5195 15.4595 49.2617 15.1235C50.0117 14.7798 50.6602 14.3267 51.207 13.7642C51.7617 13.2017 52.1836 12.5962 52.4727 11.9478C52.6289 11.5884 52.918 11.4087 53.3398 11.4087ZM56.75 17.4087C56.5547 17.4087 56.3672 17.3228 56.1875 17.1509C56.0156 16.979 55.9297 16.7993 55.9297 16.6118C55.9297 16.4243 55.957 16.2759 56.0117 16.1665L62.4453 1.45947C62.5 1.34229 62.6016 1.2251 62.75 1.10791C62.9062 0.990723 63.0586 0.932129 63.207 0.932129C63.6289 0.932129 63.9141 1.10791 64.0625 1.45947L70.5078 16.1431C70.5547 16.2446 70.5781 16.3579 70.5781 16.4829C70.5781 16.7017 70.5039 16.9087 70.3555 17.104C70.2148 17.2915 70.0312 17.3853 69.8047 17.3853C69.3438 17.3853 69.0391 17.2056 68.8906 16.8462L66.5352 11.4673H60.0195L57.6172 16.8696C57.4688 17.229 57.1797 17.4087 56.75 17.4087ZM63.2539 4.01416L60.7812 9.70947H65.7617L63.2539 4.01416ZM72.5703 1.77588C72.5703 1.52588 72.6562 1.31885 72.8281 1.15479C73.0078 0.98291 73.2266 0.896973 73.4844 0.896973C73.7578 0.896973 73.9805 1.01416 74.1523 1.24854L83.5273 13.8579V1.81104C83.5273 1.56885 83.6133 1.36182 83.7852 1.18994C83.957 1.01807 84.1641 0.932129 84.4062 0.932129C84.6484 0.932129 84.8555 1.01807 85.0273 1.18994C85.1992 1.36182 85.2852 1.56885 85.2852 1.81104V1.82275L85.2734 16.4946C85.2734 16.7446 85.1836 16.9556 85.0039 17.1274C84.832 17.2915 84.6172 17.3735 84.3594 17.3735C84.0938 17.3735 83.8711 17.2563 83.6914 17.022L74.3281 4.42432V16.4829C74.3281 16.7251 74.2422 16.9321 74.0703 17.104C73.8984 17.2759 73.6914 17.3618 73.4492 17.3618C73.207 17.3618 73 17.2759 72.8281 17.104C72.6562 16.9321 72.5703 16.7251 72.5703 16.4829V1.77588ZM89 17.3853C88.7578 17.3853 88.5508 17.2993 88.3789 17.1274C88.207 16.9556 88.1211 16.7485 88.1211 16.5063V16.4946L88.1094 1.77588V1.76416C88.1094 1.5376 88.1914 1.33447 88.3555 1.15479C88.5273 0.975098 88.7188 0.885254 88.9297 0.885254C89.2188 0.885254 89.4453 0.971191 89.6094 1.14307C89.7812 1.30713 89.8672 1.51416 89.8672 1.76416V1.77588L89.8789 16.4946V16.5063C89.8789 16.7485 89.793 16.9556 89.6211 17.1274C89.4492 17.2993 89.2422 17.3853 89 17.3853ZM92.7031 1.82275C92.7031 1.58057 92.7891 1.37354 92.9609 1.20166C93.1328 1.02979 93.3398 0.943848 93.582 0.943848L104.562 0.955566H104.574C104.816 0.955566 105.023 1.0415 105.195 1.21338C105.367 1.38525 105.453 1.59229 105.453 1.83447C105.453 2.07666 105.367 2.28369 105.195 2.45557C105.023 2.62744 104.816 2.71338 104.574 2.71338H104.562L94.4609 2.70166L94.4727 8.20947C94.4961 8.20947 94.5156 8.20947 94.5312 8.20947C94.5547 8.20166 94.5742 8.19775 94.5898 8.19775L103.602 8.25635C103.852 8.25635 104.059 8.34229 104.223 8.51416C104.395 8.67822 104.48 8.90479 104.48 9.19385C104.48 9.4126 104.391 9.604 104.211 9.76807C104.031 9.93213 103.828 10.0142 103.602 10.0142H103.59L94.5781 9.95557H94.4844L94.4961 15.4048L104.562 15.3931H104.574C104.816 15.3931 105.023 15.479 105.195 15.6509C105.367 15.8228 105.453 16.0298 105.453 16.272C105.453 16.5142 105.367 16.7212 105.195 16.8931C105.023 17.0649 104.816 17.1509 104.574 17.1509H104.562L93.6172 17.1626C93.375 17.1626 93.168 17.0767 92.9961 16.9048C92.8242 16.7329 92.7383 16.5259 92.7383 16.2837L92.7031 1.82275Z" fill="#DCDCDC"/>
</svg>
