<svg width="53" height="53" viewBox="0 0 53 53" fill="none" xmlns="http://www.w3.org/2000/svg">
<path d="M25.2315 29.1634L23.5654 36.8683C23.5337 37.0902 23.4544 37.2963 23.3274 37.4866C23.2005 37.6768 23.0577 37.8354 22.899 37.9622C22.7404 38.089 22.5582 38.1924 22.3526 38.2723C22.1469 38.3522 21.9166 38.3915 21.6614 38.3902C21.0267 38.3902 20.5107 38.1524 20.1134 37.6768C19.7161 37.2012 19.5816 36.6463 19.7098 36.0122L22.8514 21.0781L19.4242 22.4098V25.0732C19.4242 25.6122 19.2414 26.0637 18.8758 26.4277C18.5102 26.7917 18.0584 26.9743 17.5201 26.9756C16.9807 26.9756 16.5281 26.793 16.1626 26.4277C15.797 26.0624 15.6148 25.6109 15.6161 25.0732V19.9366L25.2315 15.8939C25.6757 15.7037 26.1441 15.5851 26.6366 15.5381C27.1292 15.4912 27.5969 15.5464 28.0399 15.7037C28.4842 15.8622 28.905 16.0841 29.3023 16.3695C29.6996 16.6549 30.0245 17.0195 30.2771 17.4634L32.1812 20.5073C32.9111 21.6805 33.8155 22.64 34.8944 23.3857C35.9734 24.1315 37.1793 24.6305 38.5121 24.8829C39.0515 24.9781 39.4958 25.2159 39.8449 25.5963C40.194 25.9768 40.3685 26.4366 40.3685 26.9756C40.3685 27.5146 40.1781 27.9585 39.7973 28.3073C39.4165 28.6561 38.9563 28.7988 38.4169 28.7354C36.6398 28.4817 35.0372 27.9427 33.6092 27.1183C32.1812 26.2939 30.9436 25.2951 29.8963 24.122L28.7539 26.9756L32.7524 30.7805V36.4878C32.7524 37.0268 32.5696 37.479 32.204 37.8442C31.8384 38.2095 31.3866 38.3915 30.8484 38.3902C30.3089 38.3902 29.8564 38.2076 29.4908 37.8423C29.1252 37.4771 28.9431 37.0256 28.9443 36.4878V32.5878L25.2315 29.1634ZM29.8963 14.6098C28.8491 14.6098 27.9523 14.2369 27.2059 13.4911C26.4596 12.7454 26.087 11.85 26.0883 10.8049C26.0883 9.75854 26.4615 8.86249 27.2078 8.11673C27.9542 7.37098 28.8504 6.99873 29.8963 7C30.9436 7 31.8404 7.37288 32.5867 8.11864C33.3331 8.86439 33.7057 9.75981 33.7044 10.8049C33.7044 11.8512 33.3312 12.7473 32.5848 13.493C31.8384 14.2388 30.9423 14.611 29.8963 14.6098ZM27.0403 46C24.4064 46 21.9311 45.5003 19.6146 44.5009C17.298 43.5015 15.2829 42.1463 13.5693 40.4354C11.8557 38.7232 10.4994 36.7098 9.50038 34.3951C8.50139 32.0805 8.00127 29.6073 8 26.9756C8 23.5512 8.81746 20.4357 10.4524 17.6289C12.0873 14.8222 14.2528 12.5634 16.9489 10.8524C17.3932 10.5988 17.8534 10.5436 18.3294 10.6869C18.8054 10.8302 19.1703 11.1391 19.4242 11.6134C19.678 12.0573 19.7339 12.5329 19.5917 13.0402C19.4496 13.5476 19.1557 13.9439 18.7102 14.2293C16.6157 15.5927 14.9415 17.3841 13.6873 19.6037C12.4332 21.8232 11.8068 24.2805 11.8081 26.9756C11.8081 31.2244 13.2837 34.8232 16.2349 37.772C19.1862 40.7207 22.788 42.1951 27.0403 42.1951C31.007 42.1951 34.4108 40.911 37.2516 38.3427C40.0924 35.7744 41.7343 32.572 42.1773 28.7354C42.2408 28.2281 42.4629 27.8076 42.8437 27.4741C43.2245 27.1405 43.6688 26.9743 44.1766 26.9756C44.716 26.9756 45.1686 27.15 45.5341 27.4988C45.8997 27.8476 46.0501 28.2915 45.9854 28.8305C45.5094 33.6817 43.4867 37.7561 39.9172 41.0537C36.3478 44.3512 32.0555 46 27.0403 46Z" fill="url(#paint0_linear_9_1421)"/>
<defs>
<linearGradient id="paint0_linear_9_1421" x1="27" y1="7" x2="27" y2="46" gradientUnits="userSpaceOnUse">
<stop offset="0.494792" stop-color="#00FF95"/>
<stop offset="0.932292" stop-color="#5EFF88" stop-opacity="0.4"/>
</linearGradient>
</defs>
</svg>
