<svg width="80" height="95" viewBox="0 0 80 95" fill="none" xmlns="http://www.w3.org/2000/svg">
<g clip-path="url(#clip0_37_1062)">
<path d="M10 44C10 41.2375 7.7625 39 5 39C2.2375 39 0 41.2375 0 44V71.6875C0 74.875 1.2625 77.925 3.5125 80.175L16 92.6625C17.5 94.1625 19.5375 95 21.6625 95H30C33.3125 95 36 92.3125 36 89V79.1375C36 75.425 34.525 71.8625 31.9 69.2375L28.7375 66.075L26.8375 64.175L22.8375 60.175C21.275 58.6125 18.7375 58.6125 17.175 60.175C15.6125 61.7375 15.6125 64.275 17.175 65.8375L21.175 69.8375L23.075 71.7375C24.45 73.1125 24.225 75.3875 22.6125 76.4625C21.4 77.275 19.775 77.1125 18.7375 76.075L12.3375 69.6875C10.8375 68.1875 10 66.15 10 64.025V44ZM70 44V64.025C70 66.15 69.1625 68.1875 67.6625 69.6875L61.275 76.075C60.2375 77.1125 58.6125 77.275 57.4 76.4625C55.7875 75.3875 55.5625 73.1 56.9375 71.7375L58.8375 69.8375L62.8375 65.8375C64.4 64.275 64.4 61.7375 62.8375 60.175C61.275 58.6125 58.7375 58.6125 57.175 60.175L53.175 64.175L51.275 66.075L48.1125 69.2375C45.4875 71.8625 44.0125 75.425 44.0125 79.1375V89C44.0125 92.3125 46.7 95 50.0125 95H58.35C60.475 95 62.5125 94.1625 64.0125 92.6625L76.5 80.175C78.75 77.925 80.0125 74.875 80.0125 71.6875V44C80.0125 41.2375 77.775 39 75.0125 39C72.25 39 70.0125 41.2375 70.0125 44H70Z" fill="#9177DB"/>
</g>
<path d="M39.1488 5.07448C39.3853 4.86901 39.688 4.75586 40.0014 4.75586C40.3147 4.75586 40.6174 4.86901 40.8539 5.07448L45.0746 8.74048C45.2061 8.85478 45.3592 8.94148 45.5248 8.99545C45.6904 9.04942 45.8652 9.06955 46.0388 9.05465L51.6114 8.56931C51.9234 8.54252 52.2346 8.62925 52.4878 8.81355C52.7409 8.99785 52.9191 9.26734 52.9894 9.57248L54.2504 15.0195C54.2894 15.1897 54.3622 15.3503 54.4646 15.4918C54.5669 15.6332 54.6967 15.7526 54.8463 15.8428L59.6389 18.7245C59.9071 18.886 60.108 19.1388 60.2048 19.4365C60.3015 19.7343 60.2875 20.0569 60.1654 20.3451L57.9814 25.4931C57.9135 25.6535 57.8785 25.826 57.8785 26.0001C57.8785 26.1743 57.9135 26.3468 57.9814 26.5071L60.1654 31.6551C60.2881 31.9437 60.3024 32.2668 60.2056 32.565C60.1089 32.8632 59.9076 33.1164 59.6389 33.278L54.8463 36.1596C54.697 36.2496 54.5673 36.3686 54.4649 36.5097C54.3626 36.6508 54.2896 36.811 54.2504 36.9808L52.9894 42.4278C52.9191 42.733 52.7409 43.0024 52.4878 43.1867C52.2346 43.3711 51.9234 43.4578 51.6114 43.431L46.0388 42.9456C45.8654 42.9304 45.6907 42.9502 45.525 43.0038C45.3594 43.0574 45.2062 43.1437 45.0746 43.2576L40.8518 46.9258C40.6153 47.1313 40.3125 47.2444 39.9992 47.2444C39.6859 47.2444 39.3831 47.1313 39.1466 46.9258L34.9259 43.2576C34.7943 43.1437 34.6411 43.0574 34.4755 43.0038C34.3099 42.9502 34.1352 42.9304 33.9618 42.9456L28.3891 43.431C28.0771 43.4578 27.7659 43.3711 27.5128 43.1867C27.2596 43.0024 27.0815 42.733 27.0111 42.4278L25.7501 36.9808C25.7112 36.8106 25.6383 36.65 25.536 36.5085C25.4336 36.3671 25.3038 36.2477 25.1543 36.1575L20.3616 33.2758C20.0934 33.1143 19.8925 32.8615 19.7958 32.5638C19.6991 32.266 19.713 31.9434 19.8351 31.6551L22.0191 26.5071C22.087 26.3468 22.122 26.1743 22.122 26.0001C22.122 25.826 22.087 25.6535 22.0191 25.4931L19.8351 20.3451C19.7124 20.0566 19.6981 19.7335 19.7949 19.4353C19.8916 19.1371 20.0929 18.8839 20.3616 18.7223L25.1543 15.8406C25.3036 15.7507 25.4332 15.6317 25.5356 15.4906C25.638 15.3495 25.7109 15.1893 25.7501 15.0195L27.0111 9.57248C27.0815 9.26734 27.2596 8.99785 27.5128 8.81355C27.7659 8.62925 28.0771 8.54252 28.3891 8.56931L33.9618 9.05465C34.1353 9.06955 34.3101 9.04942 34.4757 8.99545C34.6414 8.94148 34.7945 8.85478 34.9259 8.74048L39.1488 5.07448V5.07448Z" stroke="#9177DB" stroke-width="1.5625"/>
<path d="M33.5 28.167L37.8333 32.5003L48.6667 21.667" stroke="#9177DB" stroke-width="1.5625" stroke-linecap="round" stroke-linejoin="round"/>
<defs>
<clipPath id="clip0_37_1062">
<rect width="80" height="64" fill="white" transform="translate(0 31)"/>
</clipPath>
</defs>
</svg>
