<svg width="20" height="17" viewBox="0 0 20 17" fill="none" xmlns="http://www.w3.org/2000/svg">
<path d="M19.7498 3.3859C19.5601 1.59158 18.6951 0.46609 17.1597 0.299843C15.4017 0.109542 11.596 0 9.83079 0C6.2201 0 4.60656 0.105675 2.89908 0.317455C1.27191 0.518928 0.559598 1.38538 0.279621 3.17412C0.0835275 4.42762 0 5.60165 0 8.37628C0 10.8687 0.0982254 12.4362 0.250225 13.755C0.459223 15.5661 1.49668 16.5837 3.01702 16.7354C4.78581 16.9119 8.32908 17 10.081 17C11.7738 17 15.5834 16.8943 17.2773 16.6649C18.7933 16.4596 19.5142 15.4892 19.7498 13.7022C19.7498 13.7022 20 11.7446 20 8.35868C20 6.43073 19.8824 4.6377 19.7498 3.3859ZM7.87346 11.8683V4.97878L13.3479 8.3883L7.87346 11.8683Z" fill="white"/>
</svg>
